<?xml version="1.0" encoding="UTF-8"?>
<svg version="1.1" xmlns="http://www.w3.org/2000/svg" width="589" height="589">
<path d="M0 0 C3.34238145 2.28689257 3.90890798 3.56731293 4.75 7.5625 C5 11 5 11 5 14 C4.34 14 3.68 14 3 14 C3.03738281 14.86109375 3.07476562 15.7221875 3.11328125 16.609375 C2.99423726 20.17248478 2.29826982 22.87192848 1.1875 26.25 C0.82527344 27.37277344 0.46304687 28.49554688 0.08984375 29.65234375 C-0.26980469 30.75707031 -0.62945312 31.86179688 -1 33 C-1.58933528 34.93568281 -2.17338859 36.8729889 -2.75 38.8125 C-2.99234375 39.62332031 -3.2346875 40.43414062 -3.484375 41.26953125 C-3.65453125 41.84058594 -3.8246875 42.41164062 -4 43 C-3.34 43.33 -2.68 43.66 -2 44 C-2.99 44 -3.98 44 -5 44 C-4.9071875 45.4540625 -4.9071875 45.4540625 -4.8125 46.9375 C-4.8125 51.6540712 -6.38807457 55.621662 -8 60 C-8.56786888 61.68570087 -9.13057234 63.37315276 -9.6875 65.0625 C-10.125 66.375 -10.5625 67.6875 -11 69 C-10.34 69.33 -9.68 69.66 -9 70 C-9.66 70.33 -10.32 70.66 -11 71 C-11.85597239 73.57686728 -12.59346326 76.11098445 -13.27734375 78.734375 C-13.48935928 79.52338196 -13.70137482 80.31238892 -13.91981506 81.12530518 C-14.3698074 82.80568183 -14.8159345 84.48709748 -15.25854492 86.16943359 C-15.92428043 88.69975518 -16.6005883 91.22703729 -17.27929688 93.75390625 C-19.45387161 101.89231063 -21.53867709 110.02798369 -23.30810547 118.26538086 C-24.42674427 122.68664874 -26.15000198 126.83985217 -28 131 C-27.34 131.33 -26.68 131.66 -26 132 C-26.66 132.33 -27.32 132.66 -28 133 C-28.70043148 135.02386262 -29.29940076 137.0831068 -29.8515625 139.15234375 C-30.20246014 140.43890985 -30.55437937 141.72519768 -30.90722656 143.01123047 C-31.0872522 143.67419128 -31.26727783 144.3371521 -31.45275879 145.02020264 C-32.30192155 148.09228523 -33.2252948 151.14085824 -34.1484375 154.19140625 C-34.51138916 155.39394043 -34.87434082 156.59647461 -35.24829102 157.83544922 C-35.62010498 159.06537598 -35.99191895 160.29530273 -36.375 161.5625 C-40.02796663 173.67718049 -43.57175958 185.81966344 -47 198 C-46.11739502 197.89864746 -45.23479004 197.79729492 -44.32543945 197.69287109 C-41.03701659 197.321315 -37.74775313 196.96109829 -34.45727539 196.60839844 C-33.03587996 196.45371955 -31.61496107 196.29459205 -30.19458008 196.13085938 C-28.14775189 195.89570713 -26.09971916 195.67683277 -24.05078125 195.4609375 C-22.82012939 195.32478027 -21.58947754 195.18862305 -20.3215332 195.04833984 C-16.90737898 194.99865204 -14.98322417 195.38887792 -12 197 C-9.35518578 200.37441814 -8.63501129 202.74179837 -9 207 C-13.80593716 210.16987345 -17.3302581 211.47772639 -23.08203125 211.82421875 C-25.08401042 211.89045718 -25.08401042 211.89045718 -27 213 C-29 213 -31 213 -33 213 C-33.66 213.33 -34.32 213.66 -35 214 C-37.88370333 214.07194869 -40.74239664 214.09291708 -43.625 214.0625 C-44.42679688 214.05798828 -45.22859375 214.05347656 -46.0546875 214.04882812 C-48.03649006 214.03703168 -50.01825433 214.01909605 -52 214 C-54.95158886 228.96113974 -57.76435062 243.91391069 -60 259 C-59.34 259.33 -58.68 259.66 -58 260 C-58.33 260.66 -58.66 261.32 -59 262 C-59.22622081 263.70363822 -59.40888473 265.41328701 -59.5625 267.125 C-59.64628906 268.03507812 -59.73007812 268.94515625 -59.81640625 269.8828125 C-59.87699219 270.58148438 -59.93757812 271.28015625 -60 272 C-57.56261974 272.14593562 -57.56261974 272.14593562 -55 272 C-53.41977909 270.22743787 -53.41977909 270.22743787 -52 268 C-51.25621094 267.4225 -50.51242187 266.845 -49.74609375 266.25 C-46.6338291 263.69997946 -44.11465013 260.83696747 -41.5625 257.75 C-41.08385498 257.17588379 -40.60520996 256.60176758 -40.11206055 256.01025391 C-33.1380648 248.79808474 -33.1380648 248.79808474 -30 240 C-29.01 239.67 -28.02 239.34 -27 239 C-25.66490805 237.547461 -25.66490805 237.547461 -24.46875 235.7109375 C-23.99276367 235.02338379 -23.51677734 234.33583008 -23.02636719 233.62744141 C-22.52266602 232.88413574 -22.01896484 232.14083008 -21.5 231.375 C-20.43380828 229.82707928 -19.36606476 228.28022642 -18.296875 226.734375 C-17.75353516 225.94740234 -17.21019531 225.16042969 -16.65039062 224.34960938 C-15.05864869 222.08349631 -13.4261555 219.85669317 -11.765625 217.640625 C-11.25837891 216.96338379 -10.75113281 216.28614258 -10.22851562 215.58837891 C-9.25848839 214.30024168 -8.28338256 213.01590996 -7.30273438 211.73583984 C-4.60449397 208.26205549 -4.60449397 208.26205549 -4 204 C-3.01 203.67 -2.02 203.34 -1 203 C0.68229266 200.88536989 2.22796299 198.78741613 3.75 196.5625 C4.18812012 195.93375977 4.62624023 195.30501953 5.07763672 194.65722656 C5.96640723 193.38105992 6.85233074 192.10290567 7.73535156 190.82275391 C10.05354091 187.48151806 12.44733293 184.1931127 14.8203125 180.890625 C16.17645618 179.0886161 16.17645618 179.0886161 16 177 C16.99 177 17.98 177 19 177 C20.10836423 175.11683841 20.10836423 175.11683841 21 173 C20.67 172.34 20.34 171.68 20 171 C20.58523438 170.76796875 21.17046875 170.5359375 21.7734375 170.296875 C24.56231849 168.67247414 25.783999 166.89790782 27.625 164.25 C28.31980469 163.26257813 29.01460938 162.27515625 29.73046875 161.2578125 C30.47941406 160.18273437 31.22835938 159.10765625 32 158 C33.22104409 156.29063783 34.44833065 154.58586938 35.67578125 152.88110352 C37.36702091 150.52717804 39.04457723 148.16367266 40.72119141 145.79931641 C41.58530277 144.58348961 42.45224173 143.36966825 43.32177734 142.15771484 C44.5962435 140.38065565 45.86152734 138.59738576 47.125 136.8125 C47.87007813 135.76707031 48.61515625 134.72164062 49.3828125 133.64453125 C51.26085242 131.09007249 51.26085242 131.09007249 51 128 C51.99 128 52.98 128 54 128 C54.28431885 127.41549072 54.5686377 126.83098145 54.86157227 126.22875977 C55.8994073 124.19693561 57.01147632 122.27680394 58.21484375 120.33984375 C58.8656189 119.28639771 58.8656189 119.28639771 59.52954102 118.21166992 C59.99416748 117.46119385 60.45879395 116.71071777 60.9375 115.9375 C65.05873804 109.2331498 69.10517177 102.48996617 73.0625 95.6875 C73.52712646 94.89400146 73.99175293 94.10050293 74.47045898 93.28295898 C77.16661464 88.62514357 79.2954371 84.11368871 81 79 C81.99983213 77.66654078 82.99985387 76.33322372 84 75 C86.01178834 71.27602005 87.80102776 67.44394189 89.625 63.625 C90.12773437 62.59632812 90.63046875 61.56765625 91.1484375 60.5078125 C91.62796875 59.5075 92.1075 58.5071875 92.6015625 57.4765625 C93.03807129 56.56986816 93.47458008 55.66317383 93.92431641 54.72900391 C95.0706709 51.82070829 95.50873251 49.07682846 96 46 C97.4375 44.4375 97.4375 44.4375 99 43 C100.29660434 40.50965614 100.29660434 40.50965614 101 38 C100.67 37.34 100.34 36.68 100 36 C100.99 36 101.98 36 103 36 C103.17160645 35.46922852 103.34321289 34.93845703 103.52001953 34.39160156 C105.47002204 28.44222263 107.59999255 22.58245154 109.875 16.75 C110.20113281 15.87859375 110.52726562 15.0071875 110.86328125 14.109375 C112.82760424 9.09538323 114.64309885 5.41004704 119 2 C122.8125 1.1875 122.8125 1.1875 126 1 C129.70484893 5.44581872 131.47123771 7.76986531 131.27539062 13.80615234 C130.78818528 17.68738215 129.4205128 21.18763287 128 24.8125 C125.78285751 30.24647716 125.78285751 30.24647716 125 36 C124.34 36 123.68 36 123 36 C122.64228516 37.8253125 122.64228516 37.8253125 122.27734375 39.6875 C120.87788539 45.96489574 118.70525839 51.94450437 116.5625 58 C115.6609852 60.57705534 114.76401264 63.15568444 113.8671875 65.734375 C113.63458725 66.40200867 113.401987 67.06964233 113.16233826 67.75750732 C102.9862752 95.56491394 102.9862752 95.56491394 95 124 C95.33 124.66 95.66 125.32 96 126 C95.34 126 94.68 126 94 126 C93.896875 127.155 93.79375 128.31 93.6875 129.5 C93.36072564 133.15987278 92.16834969 136.27414995 90.84448242 139.68554688 C89.25297855 144.04734414 88.06089821 148.53042616 86.8125 153 C86.53986328 153.96550781 86.26722656 154.93101562 85.98632812 155.92578125 C85.32116833 158.2830142 84.65913011 160.64107534 84 163 C84.66 163.33 85.32 163.66 86 164 C85.34 164.33 84.68 164.66 84 165 C83.0492402 167.87301247 82.21245089 170.70456191 81.4375 173.625 C81.10588867 174.81802734 81.10588867 174.81802734 80.76757812 176.03515625 C79.50530066 180.68003226 78.65710342 185.22582382 78 190 C77.54865818 191.57724342 77.05441015 193.14346773 76.5 194.6875 C74.96306696 199.01396652 73.90381096 203.37906328 72.84375 207.84375 C72.62589844 208.76027344 72.40804688 209.67679688 72.18359375 210.62109375 C71.84521484 212.04615234 71.84521484 212.04615234 71.5 213.5 C71.0522974 215.38546751 70.60438855 217.27088606 70.15625 219.15625 C69.95837891 219.98962891 69.76050781 220.82300781 69.55664062 221.68164062 C68.60217539 225.65690461 67.58276533 229.61349221 66.5546875 233.5703125 C65.99454226 235.75514441 65.43465574 237.94004266 64.875 240.125 C64.58496094 241.23488281 64.29492188 242.34476563 63.99609375 243.48828125 C63.59197266 245.07576172 63.59197266 245.07576172 63.1796875 246.6953125 C62.92944824 247.66484863 62.67920898 248.63438477 62.42138672 249.63330078 C61.7554951 252.00855241 61.7554951 252.00855241 63 254 C62.34 254 61.68 254 61 254 C60.67 255.32 60.34 256.64 60 258 C60.66 258 61.32 258 62 258 C61.67 258.99 61.34 259.98 61 261 C62.87212604 261 64.43356823 259.49430162 65.953125 258.5078125 C78.24287978 250.64047598 90.67190732 243.92852979 104 238 C105.07121094 237.51144531 106.14242188 237.02289063 107.24609375 236.51953125 C127.60109344 227.59797819 157.42353841 215.84870224 180 219 C184.54054054 221.08108108 184.54054054 221.08108108 186 224 C186.36515431 227.35941969 186.49713432 229.26987629 184.56640625 232.10546875 C180.80856538 234.87952175 177.19118153 234.96826625 172.625 235.4375 C134.34361452 240.25287269 99.36646045 254.61182915 68 277 C67.42523926 277.40653809 66.85047852 277.81307617 66.25830078 278.23193359 C63.13779979 280.44349633 60.04520518 282.68585444 57 285 C56.12472656 285.598125 55.24945313 286.19625 54.34765625 286.8125 C51.42496224 289.53580889 50.78660937 291.66981622 49.75 295.5 C49.43546875 296.6240625 49.1209375 297.748125 48.796875 298.90625 C48.53390625 299.9271875 48.2709375 300.948125 48 302 C47.72349609 303.04800781 47.72349609 303.04800781 47.44140625 304.1171875 C46.93561476 306.27463439 46.56791475 308.44205929 46.1875 310.625 C45.2862103 315.23309773 43.77044243 319.30447307 41.9453125 323.6171875 C40.59571887 327.01905575 39.83136425 330.43701037 39 334 C38.608125 335.11375 38.21625 336.2275 37.8125 337.375 C36.68499116 339.94638598 36.68499116 339.94638598 38 342 C37.34 342 36.68 342 36 342 C35.76543091 343.02202515 35.76543091 343.02202515 35.52612305 344.06469727 C34.09605911 350.05305891 32.44542684 355.93008615 30.51953125 361.77734375 C30.30029999 362.44303375 30.08106873 363.10872375 29.85519409 363.79458618 C28.94533657 366.54419366 28.02928027 369.29166448 27.10766602 372.03735352 C26.42605481 374.07362238 25.75356033 376.11273174 25.08203125 378.15234375 C24.48225464 379.9465979 24.48225464 379.9465979 23.87036133 381.77709961 C23.07850653 384.70929463 22.81090624 386.98904556 23 390 C22.34 390 21.68 390 21 390 C20.938125 390.9075 20.87625 391.815 20.8125 392.75 C20.15652211 397.46543527 18.15023255 401.54452357 16.26171875 405.87890625 C14.76900734 409.57140291 13.76719926 413.26183491 12.87109375 417.13671875 C11.88431426 420.38025851 10.53284926 423.33339434 9.13012695 426.4152832 C7.00375362 431.27851813 5.21392926 436.27263146 3.375 441.25 C2.5916013 443.3595442 1.80776304 445.46892523 1.0234375 447.578125 C0.68231934 448.50012695 0.34120117 449.42212891 -0.01025391 450.37207031 C-0.68803084 452.17167339 -1.41729011 453.95248395 -2.18896484 455.71386719 C-2.45660645 456.46829102 -2.72424805 457.22271484 -3 458 C-2.67 458.66 -2.34 459.32 -2 460 C-2.99 460 -3.98 460 -5 460 C-5.23456909 460.88268555 -5.23456909 460.88268555 -5.47387695 461.78320312 C-7.41484412 468.69102088 -10.12715777 475.02132972 -13.1875 481.5 C-14.10097017 483.44636481 -15.01129836 485.39420837 -15.91796875 487.34375 C-16.31781982 488.19130859 -16.7176709 489.03886719 -17.12963867 489.91210938 C-18.12825622 491.93066468 -18.12825622 491.93066468 -18 494 C-18.66 494 -19.32 494 -20 494 C-20 495.32 -20 496.64 -20 498 C-20.66 498 -21.32 498 -22 498 C-22.30744141 499.15822266 -22.30744141 499.15822266 -22.62109375 500.33984375 C-24.53897914 505.43066135 -27.27156126 509.90525957 -30.0625 514.5625 C-30.64451172 515.54033447 -31.22652344 516.51816895 -31.82617188 517.52563477 C-36.2616874 524.91428914 -40.94494877 532.02275491 -46 539 C-46.48984375 539.71285156 -46.9796875 540.42570313 -47.484375 541.16015625 C-50.01990194 544.84606115 -52.81517525 547.87088647 -56 551 C-56.84820312 551.84820313 -57.69640625 552.69640625 -58.5703125 553.5703125 C-61.046875 556.046875 -63.5234375 558.5234375 -66 561 C-66.66708984 561.76570312 -66.66708984 561.76570312 -67.34765625 562.546875 C-75.35984948 569.59305912 -85.87689062 572.8540026 -96.3046875 573.2578125 C-99 573 -99 573 -101 571 C-102.60875 570.1646875 -102.60875 570.1646875 -104.25 569.3125 C-111.35384201 565.29535857 -115.65813056 558.70912044 -118 551 C-125.55239511 516.38145378 -111.10502951 476.81635604 -96 446 C-95.65163086 445.28118652 -95.30326172 444.56237305 -94.94433594 443.82177734 C-92.05192998 437.87044885 -89.15250316 431.94149628 -85.8125 426.2265625 C-84.18380207 423.32719938 -83.39562445 421.26390175 -83 418 C-82.01 418 -81.02 418 -80 418 C-79.73960937 417.28328125 -79.47921875 416.5665625 -79.2109375 415.828125 C-76.90777271 410.44912078 -73.31506778 405.79785392 -70 401 C-69.34547852 400.04722168 -69.34547852 400.04722168 -68.67773438 399.07519531 C-58.85083528 384.8074274 -48.32095725 371.08132087 -37.2578125 357.75 C-35.80545465 356.08851681 -35.80545465 356.08851681 -36 354 C-35.01 353.67 -34.02 353.34 -33 353 C-31.5009461 351.32391497 -30.07200674 349.58438168 -28.6875 347.8125 C-25.32314731 343.59056722 -21.91314934 339.71247501 -18 336 C-18.33 335.34 -18.66 334.68 -19 334 C-18.319375 333.649375 -17.63875 333.29875 -16.9375 332.9375 C-11.90627144 329.6190301 -8.00544585 325.21983323 -4.140625 320.62890625 C1.5172527 314.13368669 7.75417827 308.17855995 13.875 302.125 C16.33359071 299.69296814 18.78886303 297.25765523 21.2421875 294.8203125 C21.80565887 294.26513947 22.36913025 293.70996643 22.94967651 293.13796997 C25.83413106 290.34276325 25.83413106 290.34276325 28 287 C28.7425 286.5875 29.485 286.175 30.25 285.75 C36.80885025 281.5761862 38.68151716 276.8599829 40.6171875 269.5859375 C41.00000121 266.99999185 40.83899586 265.44802902 40 263 C40.66 263 41.32 263 42 263 C43.485 257.555 43.485 257.555 45 252 C44.34 251.67 43.68 251.34 43 251 C43.66 250.67 44.32 250.34 45 250 C45.88403409 247.49610536 45.88403409 247.49610536 46.60058594 244.39233398 C47.05180817 242.58665199 47.05180817 242.58665199 47.512146 240.74449158 C47.83637476 239.41172938 48.1604466 238.07892899 48.484375 236.74609375 C48.82514188 235.36994259 49.1666463 233.99397387 49.5088501 232.61817932 C50.41469365 228.96798008 51.31066883 225.31542711 52.20458984 221.66229248 C53.09170329 218.04365189 53.98746843 214.42715811 54.8828125 210.81054688 C55.93131291 206.57318479 56.97849935 202.33551689 58.01940918 198.09628296 C59.6115645 191.6127326 61.21346874 185.13230304 62.85351562 178.66064453 C63.13584045 177.54456314 63.41816528 176.42848175 63.70904541 175.27857971 C64.23186503 173.21672592 64.75752737 171.15559004 65.28656006 169.09532166 C65.51458313 168.19511795 65.7426062 167.29491425 65.97753906 166.36743164 C66.17639709 165.59049454 66.37525513 164.81355743 66.58013916 164.01307678 C67.10208661 161.85326515 67.10208661 161.85326515 67 159 C67.67596921 157.17488314 68.35705698 155.35146685 69.06640625 153.5390625 C70.9423623 148.43708999 72.43700772 143.20468495 74 138 C73.01 137.67 72.02 137.34 71 137 C71.99 136.67 72.98 136.34 74 136 C74.66 132.7 75.32 129.4 76 126 C72.02908496 127.32363835 70.9987476 129.77465187 68.9375 133.1875 C64.65183596 140.06718837 60.04986184 146.65139083 55.29248047 153.21044922 C53.94750199 155.07268803 52.61475615 156.94316042 51.28515625 158.81640625 C50.83970459 159.44353516 50.39425293 160.07066406 49.93530273 160.71679688 C49.08897236 161.90894475 48.24337911 163.10161644 47.39868164 164.29492188 C45.03315443 167.61779535 42.57801795 170.83927936 40 174 C40.33 174.66 40.66 175.32 41 176 C39.02 176.99 39.02 176.99 37 178 C37.33 178.66 37.66 179.32 38 180 C37.40147217 180.25144775 36.80294434 180.50289551 36.1862793 180.76196289 C33.7010193 182.16930554 32.64358066 183.47668887 31.01953125 185.80859375 C30.49552734 186.55560547 29.97152344 187.30261719 29.43164062 188.07226562 C28.63016602 189.24305664 28.63016602 189.24305664 27.8125 190.4375 C27.26658203 191.21416016 26.72066406 191.99082031 26.15820312 192.79101562 C23.10551519 197.14695045 23.10551519 197.14695045 21 202 C20.278125 202.71800781 19.55625 203.43601563 18.8125 204.17578125 C15.42124828 207.58116319 12.76735937 211.27154498 10 215.1875 C8.84512283 216.80343598 7.69017286 218.41931993 6.53515625 220.03515625 C5.94879395 220.85902832 5.36243164 221.68290039 4.75830078 222.53173828 C-37.19968343 281.4313801 -37.19968343 281.4313801 -56 291 C-56.66 291 -57.32 291 -58 291 C-58.33 291.66 -58.66 292.32 -59 293 C-63.63220431 293.46322043 -67.61062632 293.84723688 -71.4375 290.875 C-77.03307246 284.59704065 -76.38531095 277.22036718 -76.375 269.25 C-76.37367065 267.40643921 -76.37367065 267.40643921 -76.37231445 265.52563477 C-76.16326571 248.92801311 -73.4535739 232.94933323 -69 217 C-76.90367545 218.11905795 -84.80700134 219.2405438 -92.70992088 220.36492634 C-96.3816488 220.88724555 -100.05348119 221.40880297 -103.72558594 221.9284668 C-104.43684096 222.02919558 -105.14809599 222.12992435 -105.8809042 222.23370552 C-107.30537029 222.43542397 -108.72986268 222.63695673 -110.15438175 222.8383007 C-113.64322235 223.33277868 -117.1305861 223.83525648 -120.61582947 224.35452271 C-126.33737887 225.20497394 -132.04187684 226.03870188 -137.80297852 226.57568359 C-145.70686898 227.25697256 -145.70686898 227.25697256 -152.42871094 231.13793945 C-154.42528023 234.00232088 -155.8044297 236.79576963 -157.1875 240 C-158.30535842 242.26657949 -159.42522329 244.53217028 -160.546875 246.796875 C-161.10439453 247.97701172 -161.66191406 249.15714844 -162.23632812 250.37304688 C-165.16323541 256.49504438 -168.59457726 262.34901825 -171.9375 268.25 C-173.71277971 271.43093683 -175.47948699 274.61629155 -177.23779297 277.80664062 C-178.49331809 280.08182331 -179.75832689 282.35014981 -181.03173828 284.61523438 C-181.68948555 285.8005827 -182.3468847 286.98612427 -183.00390625 288.171875 C-183.60146729 289.24018555 -184.19902832 290.30849609 -184.81469727 291.40917969 C-185.20584717 292.26415039 -185.59699707 293.11912109 -186 294 C-185.67 294.66 -185.34 295.32 -185 296 C-185.99 296 -186.98 296 -188 296 C-188.226875 296.763125 -188.45375 297.52625 -188.6875 298.3125 C-190.48165488 303.35322087 -192.74058077 308.15345951 -195 313 C-195.66 313 -196.32 313 -197 313 C-197.21914062 313.76957031 -197.43828125 314.53914063 -197.6640625 315.33203125 C-199.48936905 320.34361854 -201.90837824 324.96521754 -204.375 329.6875 C-204.85710937 330.63689453 -205.33921875 331.58628906 -205.8359375 332.56445312 C-206.3103125 333.47517578 -206.7846875 334.38589844 -207.2734375 335.32421875 C-207.70060059 336.15010498 -208.12776367 336.97599121 -208.56787109 337.8269043 C-210.14043831 340.21309945 -211.5742047 341.50704449 -214 343 C-216.9375 343.5 -216.9375 343.5 -220 343 C-222.875 340.875 -222.875 340.875 -225 338 C-225.56415307 333.05357874 -224.34919093 330.02392812 -222.04296875 325.68359375 C-221.73933914 325.10464859 -221.43570953 324.52570343 -221.12287903 323.92921448 C-220.15581392 322.09234358 -219.1719035 320.26512631 -218.1875 318.4375 C-217.53731435 317.20695926 -216.88821522 315.9758438 -216.24023438 314.74414062 C-211.54924388 305.86704143 -211.54924388 305.86704143 -209.2902832 302.30102539 C-207.75545178 300.00356775 -207.75545178 300.00356775 -208 297 C-207.5877417 296.59136719 -207.1754834 296.18273437 -206.75073242 295.76171875 C-204.17474263 293.16956391 -202.6791913 290.01556 -200.98828125 286.8125 C-200.61519333 286.11358643 -200.24210541 285.41467285 -199.85771179 284.69458008 C-199.07258425 283.22003386 -198.29023809 281.74400376 -197.51049805 280.26660156 C-196.31447822 278.00374277 -195.10611 275.74779653 -193.89648438 273.4921875 C-193.13466355 272.05769137 -192.3735707 270.62280835 -191.61328125 269.1875 C-191.25083817 268.51243408 -190.88839508 267.83736816 -190.51496887 267.1418457 C-188.98707626 264.22738164 -188 262.34083175 -188 259 C-187.01 259 -186.02 259 -185 259 C-184.74476563 258.13761719 -184.48953125 257.27523438 -184.2265625 256.38671875 C-182.55498291 251.77124263 -180.02803105 247.87200956 -177.4609375 243.70703125 C-175.7625337 241.07267131 -175.7625337 241.07267131 -176 238 C-175.34 237.67 -174.68 237.34 -174 237 C-174 236.34 -174 235.68 -174 235 C-202.7601492 236.93852495 -235.45557818 248.20030905 -260.88598633 261.64746094 C-265.786055 264.19962873 -269.31409834 265.76202806 -275 265 C-277.71604883 263.07017583 -278.74692606 261.65799225 -279.9375 258.5625 C-280.0249821 254.97573408 -279.25142624 253.83311443 -277 251 C-273.95568116 249.06060185 -270.72530097 247.60376447 -267.4375 246.125 C-266.5081665 245.69517822 -265.57883301 245.26535645 -264.62133789 244.82250977 C-244.36541086 235.57550082 -244.36541086 235.57550082 -234 233 C-231.76095443 232.33899093 -229.52429188 231.66989465 -227.2890625 230.99609375 C-225.16316984 230.36544862 -223.0363664 229.73797252 -220.90921021 229.11160278 C-219.37785316 228.65967763 -217.84731942 228.20495387 -216.31759644 227.74752808 C-207.15628641 225.02168873 -198.10150184 222.70890717 -188.65234375 221.2265625 C-170.84470834 219.31458789 -170.84470834 219.31458789 -156.1171875 210.55859375 C-153.41121577 206.70852411 -151.52237748 202.71587332 -149.92529297 198.30078125 C-148.6610132 195.15709456 -146.87178858 192.49054481 -144.95532227 189.70898438 C-143.75603063 187.88987329 -143.75603063 187.88987329 -144 185 C-143.01 185 -142.02 185 -141 185 C-140.73445312 184.28247559 -140.46890625 183.56495117 -140.1953125 182.82568359 C-138.97460333 179.93996301 -137.53889341 177.44210185 -135.875 174.7890625 C-135.25584717 173.7990625 -134.63669434 172.8090625 -133.9987793 171.7890625 C-133.33918213 170.74492187 -132.67958496 169.70078125 -132 168.625 C-131.32300049 167.54734375 -130.64600098 166.4696875 -129.94848633 165.359375 C-125.89451942 158.92931029 -121.76905418 152.55709288 -117.51123047 146.26049805 C-114.01086903 141.07018032 -110.68858445 135.77600132 -107.3972168 130.45117188 C-107.01090088 129.82662109 -106.62458496 129.20207031 -106.2265625 128.55859375 C-105.85692383 127.95901855 -105.48728516 127.35944336 -105.10644531 126.74169922 C-104.0233363 125.03673459 -102.86755615 123.37863415 -101.7109375 121.72265625 C-99.73396399 119.11258588 -99.73396399 119.11258588 -100 116 C-99.01 115.67 -98.02 115.34 -97 115 C-95.33067816 112.79242098 -95.33067816 112.79242098 -93.75 110.0625 C-90.36811826 104.55342185 -86.75423486 99.26049322 -83 94 C-83.33 93.34 -83.66 92.68 -84 92 C-83.01 92 -82.02 92 -81 92 C-80.58379395 91.13109131 -80.58379395 91.13109131 -80.15917969 90.24462891 C-72.85218852 76.09541306 -61.85487202 63.4241674 -52 51 C-50.07519328 48.56876061 -48.15930269 46.13092542 -46.25 43.6875 C-45.47140625 42.70136719 -44.6928125 41.71523438 -43.890625 40.69921875 C-41.9129266 38.11710128 -41.9129266 38.11710128 -40.984375 35.26953125 C-39.74512867 32.41237998 -38.75300409 32.2969929 -36 31 C-33.63584811 28.55620821 -33.63584811 28.55620821 -31.375 25.6875 C-30.59898437 24.74261719 -29.82296875 23.79773438 -29.0234375 22.82421875 C-26.9209582 20.16058976 -26.9209582 20.16058976 -26.0390625 17.33203125 C-24.66314457 14.24397485 -22.8960049 13.65485994 -20 12 C-17.89229266 9.63624434 -17.89229266 9.63624434 -16 7 C-11.40737125 0.77772879 -7.87597162 -2.14799226 0 0 Z M-21 37 C-27.99758244 44.84527057 -34.15640533 53.4497887 -40.42089844 61.87988281 C-42.02717655 64.0364875 -43.64112522 66.18712694 -45.2578125 68.3359375 C-46.05674927 69.39808472 -46.05674927 69.39808472 -46.87182617 70.48168945 C-47.88202404 71.82426179 -48.89257731 73.16656682 -49.90356445 74.50854492 C-50.82411221 75.73396914 -51.74163002 76.9616767 -52.65576172 78.19189453 C-53.58221184 79.43804229 -54.51663486 80.67828879 -55.45751953 81.91357422 C-58.30317294 85.55366414 -58.30317294 85.55366414 -59 90 C-60.485 90.495 -60.485 90.495 -62 91 C-63.50602504 92.99065224 -64.85295644 94.96027667 -66.1875 97.0625 C-67.07358782 98.42488972 -67.96035621 99.78683696 -68.84765625 101.1484375 C-69.34152832 101.91124023 -69.83540039 102.67404297 -70.34423828 103.45996094 C-73.5624805 108.39694 -76.85048973 113.28774659 -80.125 118.1875 C-82.09346464 121.13935129 -84.06115173 124.09171845 -86.02832031 127.04443359 C-87.35860744 129.03854652 -88.69134794 131.03102468 -90.02636719 133.02197266 C-94.44687854 139.62294328 -98.7587487 146.2826841 -103 153 C-106.77398186 158.95838989 -110.55965033 164.90009626 -114.5 170.75 C-117.18892437 174.74384354 -119.71189124 178.79365546 -122.1484375 182.9453125 C-123.74090138 185.57254194 -125.37647082 188.15917862 -127.0390625 190.7421875 C-127.58594727 191.59482178 -128.13283203 192.44745605 -128.69628906 193.32592773 C-129.80473247 195.05033423 -130.91856948 196.77128707 -132.03808594 198.48852539 C-132.54887695 199.28508545 -133.05966797 200.08164551 -133.5859375 200.90234375 C-134.28275635 201.97730103 -134.28275635 201.97730103 -134.99365234 203.07397461 C-136.23154789 205.08097287 -136.23154789 205.08097287 -136 208 C-136.66 208 -137.32 208 -138 208 C-138 208.99 -138 209.98 -138 211 C-129.76536169 210.33279324 -121.59853001 209.34168913 -113.4140625 208.22265625 C-112.15411469 208.05124619 -110.89416687 207.87983612 -109.59603882 207.70323181 C-106.95201085 207.34234334 -104.30817503 206.98026691 -101.66455078 206.61645508 C-98.28635641 206.15199684 -94.90709093 205.69587434 -91.52750587 205.24166203 C-88.28057803 204.80351705 -85.03490828 204.35623558 -81.7890625 203.91015625 C-80.58069733 203.74862564 -79.37233215 203.58709503 -78.12734985 203.42066956 C-77.0020285 203.26388229 -75.87670715 203.10709503 -74.71728516 202.94555664 C-73.7312027 202.81089493 -72.74512024 202.67623322 -71.72915649 202.53749084 C-68.90251149 201.98080023 -66.5610995 201.32604796 -64 200 C-62.86484199 197.27898219 -62.10569358 194.91105429 -61.421875 192.07421875 C-61.10330032 190.86611542 -61.10330032 190.86611542 -60.77828979 189.63360596 C-60.32251879 187.897373 -59.87602036 186.15868507 -59.43780518 184.41793823 C-58.27299977 179.79391193 -57.04128923 175.18757132 -55.8203125 170.578125 C-55.57852264 169.65728622 -55.33673279 168.73644745 -55.08761597 167.78770447 C-53.14618878 160.42852192 -50.95926167 153.18246871 -48.625 145.9375 C-39.94498505 118.63433337 -32.74938054 90.84095823 -25.42230225 63.15023804 C-24.93586284 61.31302924 -24.44764737 59.4762897 -23.95758057 57.64004517 C-23.28171314 55.10281493 -22.61417115 52.563547 -21.94921875 50.0234375 C-21.7499025 49.27981461 -21.55058624 48.53619171 -21.3452301 47.77003479 C-20.3959205 44.10292707 -19.76877937 40.79313046 -20 37 C-20.33 37 -20.66 37 -21 37 Z M78 119 C77.67 120.32 77.34 121.64 77 123 C77.66 122.67 78.32 122.34 79 122 C78.67 121.01 78.34 120.02 78 119 Z M27 311 C26.34 311.845625 25.68 312.69125 25 313.5625 C22.30857739 316.80444087 19.28218962 319.4845301 16.0625 322.19140625 C11.16311021 326.48765147 6.8278308 331.32305017 2.44384766 336.13256836 C1.95706543 336.6663208 1.4702832 337.20007324 0.96875 337.75 C0.23205078 338.55824219 0.23205078 338.55824219 -0.51953125 339.3828125 C-1.95378128 340.94951306 -3.39690001 342.50743685 -4.84375 344.0625 C-9.98168584 349.59579992 -14.92869729 355.23268793 -19.65625 361.125 C-21.39832838 363.26194948 -23.16125806 365.35726631 -24.96875 367.4375 C-25.47212891 368.01959229 -25.97550781 368.60168457 -26.49414062 369.20141602 C-27.47684891 370.33436651 -28.46491021 371.46270228 -29.45898438 372.58569336 C-31.87096608 375.37748387 -33.20387132 377.42571396 -34 381 C-35.485 381.495 -35.485 381.495 -37 382 C-38.4780987 383.54860066 -38.4780987 383.54860066 -39.86328125 385.515625 C-40.41322754 386.26118652 -40.96317383 387.00674805 -41.52978516 387.77490234 C-42.11808105 388.59168457 -42.70637695 389.4084668 -43.3125 390.25 C-43.92915527 391.09900879 -44.54581055 391.94801758 -45.18115234 392.82275391 C-64.80203438 420.04106451 -82.79459818 448.81761901 -93 481 C-93.34289062 482.05832031 -93.68578125 483.11664063 -94.0390625 484.20703125 C-95.82312733 489.82234323 -97.2962397 495.13533087 -98 501 C-98.66666667 503.33333333 -99.33333333 505.66666667 -100 508 C-103.29125117 522.13124357 -105.51132272 537.10092715 -100 551 C-97.66527444 554.13344747 -96.17793918 555.50402561 -92.625 557 C-83.24324957 557 -75.38779563 548.46536794 -69.0625 542.4375 C-43.23535888 515.93279499 -27.627235 477.34933345 -14.86572266 443.29394531 C-13.97222708 440.9264088 -13.05598263 438.56857899 -12.13671875 436.2109375 C-6.67906324 422.08214205 -1.76822623 407.76914442 3.125 393.4375 C3.4624826 392.4524649 3.79996521 391.46742981 4.14767456 390.45254517 C9.07287201 376.05734513 13.66056752 361.58242222 18 347 C17.34 346.67 16.68 346.34 16 346 C16 345.34 16 344.68 16 344 C16.99 344 17.98 344 19 344 C20.30932503 339.62444757 21.60914529 335.2462283 22.90014648 330.86523438 C23.34088652 329.37454858 23.78423741 327.88463217 24.23022461 326.39550781 C24.86996579 324.25781871 25.50033857 322.1175597 26.12890625 319.9765625 C26.33093155 319.30879791 26.53295685 318.64103333 26.74110413 317.95303345 C27.939224 314.43012648 27.939224 314.43012648 27 311 Z " fill="#F1F1F1" transform="translate(332,9)"/>
<path d="M0 0 C-1.46966358 3.39859703 -3.38037514 5.64963709 -6 8.25 C-6.70125 8.95640625 -7.4025 9.6628125 -8.125 10.390625 C-10 12 -10 12 -12 12 C-9.98697969 7.241952 -5.71890513 0 0 0 Z " fill="#CBCCCB" transform="translate(325,9)"/>
<path d="M0 0 C0.66 0.33 1.32 0.66 2 1 C1.67 1.99 1.34 2.98 1 4 C0.34 3.34 -0.32 2.68 -1 2 C-0.67 1.34 -0.34 0.68 0 0 Z " fill="#A9A9A9" transform="translate(57,275)"/>
<path d="M0 0 C1.98 0 3.96 0 6 0 C6 0.33 6 0.66 6 1 C4.02 1 2.04 1 0 1 C0 0.67 0 0.34 0 0 Z " fill="#AAAAAA" transform="translate(493,246)"/>
<path d="M0 0 C4 1 4 1 4 1 Z " fill="#7F7F7F" transform="translate(142,228)"/>
<path d="M0 0 C0.66 0.66 1.32 1.32 2 2 C1.34 2 0.68 2 0 2 C0 1.34 0 0.68 0 0 Z " fill="#848484" transform="translate(62,275)"/>
<path d="M0 0 C3 1 3 1 3 1 Z " fill="#848484" transform="translate(144,246)"/>
<path d="M0 0 C3 1 3 1 3 1 Z " fill="#D9D9D9" transform="translate(503,245)"/>
<path d="M0 0 C2 1 2 1 2 1 Z " fill="#C6C6C6" transform="translate(228,580)"/>
<path d="M0 0 C2 1 2 1 2 1 Z " fill="#7F7F7F" transform="translate(236,450)"/>
<path d="" fill="#8D8D8D" transform="translate(0,0)"/>
<path d="M0 0 C2 1 2 1 2 1 Z " fill="#7F7F7F" transform="translate(368,355)"/>
<path d="M0 0 C2 1 2 1 2 1 Z " fill="#C6C6C6" transform="translate(367,288)"/>
<path d="M0 0 C2 1 2 1 2 1 Z " fill="#7F7F7F" transform="translate(401,285)"/>
<path d="M0 0 C2 1 2 1 2 1 Z " fill="#7F7F7F" transform="translate(413,256)"/>
<path d="M0 0 C2 1 2 1 2 1 Z " fill="#C6C6C6" transform="translate(148,245)"/>
<path d="M0 0 C2 1 2 1 2 1 Z " fill="#C6C6C6" transform="translate(440,243)"/>
<path d="M0 0 C2 1 2 1 2 1 Z " fill="#C6C6C6" transform="translate(188,237)"/>
<path d="M0 0 C2 1 2 1 2 1 Z " fill="#7F7F7F" transform="translate(477,231)"/>
<path d="M0 0 C2 1 2 1 2 1 Z " fill="#7F7F7F" transform="translate(492,228)"/>
<path d="M0 0 C2 1 2 1 2 1 Z " fill="#C6C6C6" transform="translate(257,227)"/>
<path d="M0 0 C2 1 2 1 2 1 Z " fill="#C6C6C6" transform="translate(308,221)"/>
<path d="M0 0 C2 1 2 1 2 1 Z " fill="#7F7F7F" transform="translate(320,218)"/>
<path d="M0 0 C2 1 2 1 2 1 Z " fill="#C6C6C6" transform="translate(195,218)"/>
<path d="M0 0 C2 1 2 1 2 1 Z " fill="#7F7F7F" transform="translate(228,130)"/>
<path d="M0 0 C2 1 2 1 2 1 Z " fill="#7F7F7F" transform="translate(453,9)"/>
<path d="" fill="#8D8D8D" transform="translate(0,0)"/>
<path d="" fill="#8D8D8D" transform="translate(0,0)"/>
<path d="" fill="#8D8D8D" transform="translate(0,0)"/>
<path d="" fill="#8D8D8D" transform="translate(0,0)"/>
<path d="" fill="#8D8D8D" transform="translate(0,0)"/>
<path d="" fill="#8D8D8D" transform="translate(0,0)"/>
<path d="" fill="#8D8D8D" transform="translate(0,0)"/>
<path d="" fill="#8D8D8D" transform="translate(0,0)"/>
<path d="" fill="#8D8D8D" transform="translate(0,0)"/>
<path d="" fill="#8D8D8D" transform="translate(0,0)"/>
<path d="" fill="#8D8D8D" transform="translate(0,0)"/>
<path d="" fill="#8D8D8D" transform="translate(0,0)"/>
<path d="" fill="#8D8D8D" transform="translate(0,0)"/>
<path d="" fill="#8D8D8D" transform="translate(0,0)"/>
<path d="" fill="#8D8D8D" transform="translate(0,0)"/>
<path d="" fill="#8D8D8D" transform="translate(0,0)"/>
<path d="" fill="#8D8D8D" transform="translate(0,0)"/>
<path d="" fill="#8D8D8D" transform="translate(0,0)"/>
<path d="" fill="#8D8D8D" transform="translate(0,0)"/>
<path d="" fill="#8D8D8D" transform="translate(0,0)"/>
<path d="" fill="#8D8D8D" transform="translate(0,0)"/>
<path d="" fill="#8D8D8D" transform="translate(0,0)"/>
<path d="" fill="#8D8D8D" transform="translate(0,0)"/>
<path d="" fill="#8D8D8D" transform="translate(0,0)"/>
<path d="" fill="#8D8D8D" transform="translate(0,0)"/>
<path d="" fill="#8D8D8D" transform="translate(0,0)"/>
<path d="" fill="#8D8D8D" transform="translate(0,0)"/>
<path d="" fill="#8D8D8D" transform="translate(0,0)"/>
<path d="" fill="#8D8D8D" transform="translate(0,0)"/>
<path d="" fill="#8D8D8D" transform="translate(0,0)"/>
<path d="" fill="#8D8D8D" transform="translate(0,0)"/>
<path d="" fill="#8D8D8D" transform="translate(0,0)"/>
<path d="" fill="#8D8D8D" transform="translate(0,0)"/>
<path d="" fill="#8D8D8D" transform="translate(0,0)"/>
<path d="" fill="#8D8D8D" transform="translate(0,0)"/>
<path d="" fill="#8D8D8D" transform="translate(0,0)"/>
<path d="" fill="#8D8D8D" transform="translate(0,0)"/>
<path d="" fill="#8D8D8D" transform="translate(0,0)"/>
<path d="" fill="#8D8D8D" transform="translate(0,0)"/>
<path d="" fill="#8D8D8D" transform="translate(0,0)"/>
<path d="" fill="#8D8D8D" transform="translate(0,0)"/>
<path d="" fill="#8D8D8D" transform="translate(0,0)"/>
<path d="" fill="#8D8D8D" transform="translate(0,0)"/>
<path d="" fill="#8D8D8D" transform="translate(0,0)"/>
<path d="" fill="#8D8D8D" transform="translate(0,0)"/>
<path d="" fill="#8D8D8D" transform="translate(0,0)"/>
<path d="" fill="#8D8D8D" transform="translate(0,0)"/>
<path d="" fill="#8D8D8D" transform="translate(0,0)"/>
<path d="" fill="#8D8D8D" transform="translate(0,0)"/>
<path d="" fill="#8D8D8D" transform="translate(0,0)"/>
<path d="" fill="#8D8D8D" transform="translate(0,0)"/>
<path d="" fill="#8D8D8D" transform="translate(0,0)"/>
<path d="" fill="#8D8D8D" transform="translate(0,0)"/>
<path d="" fill="#8D8D8D" transform="translate(0,0)"/>
<path d="" fill="#8D8D8D" transform="translate(0,0)"/>
<path d="" fill="#8D8D8D" transform="translate(0,0)"/>
<path d="" fill="#8D8D8D" transform="translate(0,0)"/>
<path d="" fill="#8D8D8D" transform="translate(0,0)"/>
<path d="" fill="#8D8D8D" transform="translate(0,0)"/>
<path d="" fill="#8D8D8D" transform="translate(0,0)"/>
<path d="" fill="#8D8D8D" transform="translate(0,0)"/>
<path d="" fill="#8D8D8D" transform="translate(0,0)"/>
<path d="" fill="#8D8D8D" transform="translate(0,0)"/>
<path d="" fill="#8D8D8D" transform="translate(0,0)"/>
<path d="" fill="#8D8D8D" transform="translate(0,0)"/>
<path d="" fill="#8D8D8D" transform="translate(0,0)"/>
<path d="" fill="#8D8D8D" transform="translate(0,0)"/>
<path d="" fill="#8D8D8D" transform="translate(0,0)"/>
<path d="" fill="#8D8D8D" transform="translate(0,0)"/>
<path d="" fill="#8D8D8D" transform="translate(0,0)"/>
<path d="" fill="#8D8D8D" transform="translate(0,0)"/>
<path d="" fill="#8D8D8D" transform="translate(0,0)"/>
<path d="" fill="#8D8D8D" transform="translate(0,0)"/>
<path d="" fill="#8D8D8D" transform="translate(0,0)"/>
<path d="" fill="#8D8D8D" transform="translate(0,0)"/>
<path d="" fill="#8D8D8D" transform="translate(0,0)"/>
<path d="" fill="#8D8D8D" transform="translate(0,0)"/>
<path d="" fill="#8D8D8D" transform="translate(0,0)"/>
<path d="" fill="#8D8D8D" transform="translate(0,0)"/>
<path d="" fill="#8D8D8D" transform="translate(0,0)"/>
<path d="" fill="#8D8D8D" transform="translate(0,0)"/>
<path d="" fill="#8D8D8D" transform="translate(0,0)"/>
<path d="" fill="#8D8D8D" transform="translate(0,0)"/>
<path d="" fill="#8D8D8D" transform="translate(0,0)"/>
<path d="" fill="#8D8D8D" transform="translate(0,0)"/>
</svg>
